<?xml version="1.0" encoding="UTF-8"?>
<svg xmlns="http://www.w3.org/2000/svg" xmlns:xlink="http://www.w3.org/1999/xlink" width="300px" height="191px" viewBox="0 0 299 191" version="1.1">
<g id="surface1">
<path style=" stroke:none;fill-rule:nonzero;fill:rgb(94.901961%,94.901961%,94.901961%);fill-opacity:1;" d="M 103.019531 178.707031 L 93.863281 184.03125 L 102.886719 181.847656 C 102.820312 182.59375 102.722656 183.328125 102.597656 184.046875 C 102.5625 184.246094 102.523438 184.441406 102.484375 184.636719 C 102.175781 186.285156 101.617188 187.878906 100.828125 189.355469 C 100.675781 189.628906 100.523438 189.894531 100.367188 190.148438 C 100.214844 190.410156 100.054688 190.660156 99.894531 190.902344 L 75.625 190.902344 C 75.421875 190.660156 75.230469 190.40625 75.054688 190.148438 C 73.324219 187.710938 72.621094 184.683594 73.101562 181.730469 C 73.191406 181.128906 73.316406 180.535156 73.480469 179.949219 C 73.640625 179.351562 73.832031 178.765625 74.058594 178.191406 C 74.453125 177.171875 74.917969 176.183594 75.449219 175.234375 C 76.5625 173.226562 78.296875 171.417969 80.339844 169.8125 C 81.328125 169.039062 82.359375 168.320312 83.425781 167.664062 C 83.628906 167.53125 83.832031 167.40625 84.042969 167.28125 C 84.359375 167.09375 84.679688 166.90625 85 166.726562 C 85.644531 166.359375 86.289062 166.011719 86.9375 165.683594 C 87.109375 165.59375 87.273438 165.507812 87.441406 165.425781 C 88.847656 164.726562 90.246094 164.09375 91.578125 163.542969 C 91.746094 163.472656 91.917969 163.402344 92.082031 163.335938 C 94.734375 162.25 97.445312 161.320312 100.203125 160.550781 C 100.203125 160.550781 100.214844 160.574219 100.230469 160.628906 C 100.269531 160.773438 100.375 161.125 100.515625 161.644531 C 100.910156 163.082031 101.605469 165.828125 102.164062 169.140625 C 102.195312 169.324219 102.226562 169.507812 102.257812 169.691406 C 102.722656 172.492188 102.980469 175.328125 103.03125 178.167969 C 103.035156 178.34375 103.035156 178.519531 103.035156 178.695312 Z M 103.019531 178.707031 "/>
<path style=" stroke:none;fill-rule:nonzero;fill:rgb(100%,100%,100%);fill-opacity:1;" d="M 100.875 160.226562 C 100.871094 160.238281 100.839844 160.390625 100.765625 160.675781 C 100.707031 160.914062 100.625 161.238281 100.515625 161.644531 C 100.148438 163.058594 99.492188 165.425781 98.554688 168.277344 C 98.503906 168.445312 98.445312 168.613281 98.390625 168.785156 C 97.738281 170.734375 96.964844 172.894531 96.070312 175.109375 C 95.847656 175.667969 95.625 176.214844 95.394531 176.746094 C 95.324219 176.914062 95.253906 177.078125 95.179688 177.242188 C 94.203125 179.511719 93.195312 181.589844 92.160156 183.472656 L 91.898438 183.945312 C 90.695312 186.132812 89.300781 188.207031 87.734375 190.148438 C 87.523438 190.410156 87.308594 190.660156 87.089844 190.902344 L 86.355469 190.902344 C 86.578125 190.660156 86.796875 190.40625 87.011719 190.148438 C 88.671875 188.140625 90.136719 185.980469 91.390625 183.699219 C 91.480469 183.542969 91.570312 183.386719 91.65625 183.230469 C 92.769531 181.203125 93.78125 179.085938 94.6875 176.984375 C 94.761719 176.824219 94.832031 176.660156 94.898438 176.492188 C 96.085938 173.714844 97.078125 170.984375 97.878906 168.582031 C 97.9375 168.410156 97.996094 168.242188 98.046875 168.074219 C 99.214844 164.527344 99.949219 161.742188 100.230469 160.628906 C 100.269531 160.464844 100.300781 160.335938 100.320312 160.246094 C 100.34375 160.164062 100.351562 160.117188 100.355469 160.109375 L 100.613281 160.167969 Z M 100.875 160.226562 "/>
<path style=" stroke:none;fill-rule:nonzero;fill:rgb(100%,100%,100%);fill-opacity:1;" d="M 102.648438 169.183594 C 102.488281 169.175781 102.324219 169.160156 102.164062 169.140625 C 100.929688 169.015625 99.714844 168.722656 98.554688 168.277344 C 98.390625 168.210938 98.21875 168.144531 98.046875 168.074219 C 97.585938 167.875 97.136719 167.652344 96.695312 167.40625 C 94.882812 166.402344 93.308594 165.011719 92.082031 163.335938 C 92.042969 163.28125 92 163.226562 91.964844 163.171875 C 91.800781 163.242188 91.632812 163.3125 91.460938 163.382812 C 91.5 163.433594 91.539062 163.488281 91.578125 163.542969 C 92.855469 165.332031 94.515625 166.808594 96.4375 167.875 C 96.90625 168.136719 97.386719 168.371094 97.878906 168.582031 C 98.046875 168.652344 98.21875 168.722656 98.390625 168.785156 C 99.632812 169.257812 100.933594 169.5625 102.257812 169.691406 C 102.414062 169.707031 102.574219 169.71875 102.734375 169.726562 C 102.707031 169.539062 102.675781 169.359375 102.648438 169.183594 Z M 102.648438 169.183594 "/>
<path style=" stroke:none;fill-rule:nonzero;fill:rgb(100%,100%,100%);fill-opacity:1;" d="M 103.03125 178.167969 C 100.402344 178.40625 97.757812 177.917969 95.394531 176.746094 C 95.226562 176.667969 95.0625 176.582031 94.898438 176.492188 C 94.847656 176.46875 94.800781 176.441406 94.75 176.414062 C 90.6875 174.148438 87.964844 170.058594 87.441406 165.425781 C 87.4375 165.375 87.429688 165.316406 87.421875 165.261719 C 87.253906 165.351562 87.082031 165.4375 86.914062 165.523438 C 86.921875 165.578125 86.929688 165.628906 86.9375 165.683594 C 87.527344 170.410156 90.335938 174.566406 94.492188 176.878906 C 94.554688 176.914062 94.621094 176.953125 94.6875 176.984375 C 94.851562 177.074219 95.015625 177.160156 95.179688 177.242188 C 97.613281 178.433594 100.320312 178.941406 103.019531 178.707031 C 103.160156 178.691406 103.300781 178.675781 103.445312 178.660156 C 103.445312 178.480469 103.445312 178.304688 103.445312 178.125 C 103.308594 178.140625 103.167969 178.15625 103.03125 178.167969 Z M 103.03125 178.167969 "/>
<path style=" stroke:none;fill-rule:nonzero;fill:rgb(100%,100%,100%);fill-opacity:1;" d="M 102.597656 184.046875 C 99.753906 184.980469 96.691406 185.003906 93.835938 184.113281 C 93.265625 183.9375 92.703125 183.722656 92.160156 183.472656 C 91.988281 183.398438 91.820312 183.316406 91.65625 183.230469 C 91.472656 183.140625 91.296875 183.046875 91.125 182.953125 C 86.304688 180.265625 83.4375 175.0625 83.738281 169.546875 C 83.777344 168.785156 83.878906 168.027344 84.042969 167.28125 C 84.050781 167.234375 84.0625 167.183594 84.074219 167.132812 C 83.867188 167.261719 83.65625 167.390625 83.453125 167.523438 C 83.441406 167.570312 83.433594 167.613281 83.425781 167.664062 C 83.242188 168.683594 83.164062 169.722656 83.195312 170.757812 C 83.335938 176.039062 86.253906 180.851562 90.863281 183.417969 C 91.039062 183.515625 91.214844 183.609375 91.390625 183.699219 C 91.558594 183.785156 91.730469 183.867188 91.898438 183.945312 C 95.222656 185.46875 98.988281 185.714844 102.484375 184.636719 C 102.601562 184.605469 102.71875 184.566406 102.835938 184.53125 C 102.882812 184.328125 102.921875 184.125 102.960938 183.921875 C 102.839844 183.96875 102.722656 184.007812 102.597656 184.046875 Z M 102.597656 184.046875 "/>
<path style=" stroke:none;fill-rule:nonzero;fill:rgb(61.960784%,38.039216%,41.568627%);fill-opacity:1;" d="M 63.226562 77.957031 L 80.90625 77.957031 L 80.90625 95.664062 L 63.226562 95.664062 Z M 63.226562 77.957031 "/>
<path style=" stroke:none;fill-rule:nonzero;fill:rgb(61.960784%,38.039216%,41.568627%);fill-opacity:1;" d="M 52.199219 183.792969 L 55.683594 183.792969 L 57.339844 170.335938 L 52.199219 170.335938 Z M 52.199219 183.792969 "/>
<path style=" stroke:none;fill-rule:nonzero;fill:rgb(18.431373%,18.039216%,25.490196%);fill-opacity:1;" d="M 61.761719 187.726562 L 56.527344 184.105469 L 56.527344 181.742188 L 55.933594 181.777344 L 52.199219 182.003906 L 51.019531 182.074219 L 50.347656 190.148438 L 50.324219 190.417969 L 52.796875 190.417969 L 52.847656 190.148438 L 53.238281 188.082031 L 54.238281 190.148438 L 54.371094 190.417969 L 60.925781 190.417969 C 61.738281 190.417969 62.394531 189.757812 62.398438 188.945312 C 62.398438 188.457031 62.160156 188.003906 61.761719 187.726562 Z M 61.761719 187.726562 "/>
<path style=" stroke:none;fill-rule:nonzero;fill:rgb(61.960784%,38.039216%,41.568627%);fill-opacity:1;" d="M 72.574219 181.578125 L 75.921875 182.542969 L 81.226562 170.070312 L 76.285156 168.644531 Z M 72.574219 181.578125 "/>
<path style=" stroke:none;fill-rule:nonzero;fill:rgb(18.431373%,18.039216%,25.490196%);fill-opacity:1;" d="M 80.675781 188.007812 L 76.644531 183.078125 L 77.296875 180.808594 L 76.71875 180.679688 L 73.480469 179.949219 L 73.066406 179.859375 L 71.914062 179.601562 L 68.945312 187.425781 L 71.316406 188.113281 L 72.386719 185.988281 L 72.828125 188.546875 L 74.324219 188.976562 L 78.394531 190.148438 L 79.128906 190.359375 C 79.75 190.542969 80.414062 190.296875 80.769531 189.757812 C 81.125 189.214844 81.085938 188.507812 80.675781 188.007812 Z M 80.675781 188.007812 "/>
<path style=" stroke:none;fill-rule:nonzero;fill:rgb(89.411765%,89.411765%,89.411765%);fill-opacity:1;" d="M 298.046875 0 L 113.511719 0 C 112.941406 0 112.480469 0.464844 112.480469 1.039062 L 112.480469 7.125 C 112.480469 7.695312 112.941406 8.160156 113.511719 8.160156 L 298.046875 8.160156 C 298.617188 8.160156 299.078125 7.695312 299.078125 7.125 L 299.078125 1.039062 C 299.078125 0.464844 298.617188 0 298.046875 0 Z M 298.046875 0 "/>
<path style=" stroke:none;fill-rule:nonzero;fill:rgb(100%,100%,100%);fill-opacity:1;" d="M 119.945312 3.785156 C 119.945312 4.59375 119.289062 5.253906 118.480469 5.253906 C 117.667969 5.253906 117.011719 4.59375 117.011719 3.785156 C 117.011719 2.972656 117.667969 2.3125 118.480469 2.3125 C 119.289062 2.3125 119.945312 2.972656 119.945312 3.785156 Z M 119.945312 3.785156 "/>
<path style=" stroke:none;fill-rule:nonzero;fill:rgb(100%,100%,100%);fill-opacity:1;" d="M 125.515625 3.785156 C 125.515625 4.59375 124.859375 5.253906 124.046875 5.253906 C 123.238281 5.253906 122.582031 4.59375 122.582031 3.785156 C 122.582031 2.972656 123.238281 2.3125 124.046875 2.3125 C 124.859375 2.3125 125.515625 2.972656 125.515625 3.785156 Z M 125.515625 3.785156 "/>
<path style=" stroke:none;fill-rule:nonzero;fill:rgb(100%,100%,100%);fill-opacity:1;" d="M 131.085938 3.785156 C 131.085938 4.59375 130.429688 5.253906 129.621094 5.253906 C 128.808594 5.253906 128.152344 4.59375 128.152344 3.785156 C 128.152344 2.972656 128.808594 2.3125 129.621094 2.3125 C 130.429688 2.3125 131.085938 2.972656 131.085938 3.785156 Z M 131.085938 3.785156 "/>
<path style=" stroke:none;fill-rule:nonzero;fill:rgb(100%,100%,100%);fill-opacity:1;" d="M 292.585938 1.820312 L 286.175781 1.820312 C 285.914062 1.820312 285.699219 2.035156 285.699219 2.296875 C 285.699219 2.558594 285.914062 2.773438 286.175781 2.773438 L 292.585938 2.773438 C 292.851562 2.773438 293.0625 2.558594 293.0625 2.296875 C 293.0625 2.035156 292.851562 1.820312 292.585938 1.820312 Z M 292.585938 1.820312 "/>
<path style=" stroke:none;fill-rule:nonzero;fill:rgb(100%,100%,100%);fill-opacity:1;" d="M 292.585938 3.605469 L 286.175781 3.605469 C 285.914062 3.605469 285.699219 3.816406 285.699219 4.082031 C 285.699219 4.34375 285.914062 4.558594 286.175781 4.558594 L 292.585938 4.558594 C 292.851562 4.558594 293.0625 4.34375 293.0625 4.082031 C 293.0625 3.816406 292.851562 3.605469 292.585938 3.605469 Z M 292.585938 3.605469 "/>
<path style=" stroke:none;fill-rule:nonzero;fill:rgb(100%,100%,100%);fill-opacity:1;" d="M 292.585938 5.386719 L 286.175781 5.386719 C 285.914062 5.386719 285.699219 5.601562 285.699219 5.863281 C 285.699219 6.128906 285.914062 6.339844 286.175781 6.339844 L 292.585938 6.339844 C 292.851562 6.339844 293.0625 6.128906 293.0625 5.863281 C 293.0625 5.601562 292.851562 5.386719 292.585938 5.386719 Z M 292.585938 5.386719 "/>
<path style=" stroke:none;fill-rule:nonzero;fill:rgb(89.411765%,89.411765%,89.411765%);fill-opacity:1;" d="M 291.859375 25.769531 L 244.046875 25.769531 C 243.351562 25.769531 242.792969 26.332031 242.789062 27.027344 L 242.789062 46.460938 C 242.792969 47.152344 243.351562 47.714844 244.046875 47.71875 L 291.859375 47.71875 C 292.550781 47.71875 293.113281 47.15625 293.113281 46.460938 L 293.113281 27.027344 C 293.113281 26.332031 292.550781 25.769531 291.859375 25.769531 Z M 291.859375 25.769531 "/>
<path style=" stroke:none;fill-rule:nonzero;fill:rgb(89.411765%,89.411765%,89.411765%);fill-opacity:1;" d="M 287.304688 54.019531 L 248.597656 54.019531 C 247.765625 54.019531 247.09375 54.695312 247.09375 55.527344 C 247.09375 56.363281 247.765625 57.039062 248.597656 57.039062 L 287.304688 57.039062 C 289.269531 57.066406 289.25 53.988281 287.304688 54.019531 Z M 287.304688 54.019531 "/>
<path style=" stroke:none;fill-rule:nonzero;fill:rgb(89.411765%,89.411765%,89.411765%);fill-opacity:1;" d="M 287.304688 60.941406 L 248.597656 60.941406 C 247.765625 60.941406 247.09375 61.617188 247.09375 62.449219 C 247.09375 63.285156 247.765625 63.960938 248.597656 63.960938 L 287.304688 63.960938 C 289.269531 63.988281 289.25 60.910156 287.304688 60.941406 Z M 287.304688 60.941406 "/>
<path style=" stroke:none;fill-rule:nonzero;fill:rgb(89.411765%,89.411765%,89.411765%);fill-opacity:1;" d="M 287.304688 67.863281 L 248.597656 67.863281 C 247.765625 67.863281 247.09375 68.539062 247.09375 69.371094 C 247.09375 70.207031 247.765625 70.882812 248.597656 70.882812 L 287.304688 70.882812 C 289.269531 70.910156 289.25 67.832031 287.304688 67.863281 Z M 287.304688 67.863281 "/>
<path style=" stroke:none;fill-rule:nonzero;fill:rgb(89.411765%,89.411765%,89.411765%);fill-opacity:1;" d="M 229.027344 25.769531 L 181.214844 25.769531 C 180.523438 25.769531 179.960938 26.332031 179.957031 27.027344 L 179.957031 46.460938 C 179.960938 47.152344 180.523438 47.714844 181.214844 47.71875 L 229.027344 47.71875 C 229.722656 47.71875 230.28125 47.15625 230.285156 46.460938 L 230.285156 27.027344 C 230.28125 26.332031 229.722656 25.769531 229.027344 25.769531 Z M 229.027344 25.769531 "/>
<path style=" stroke:none;fill-rule:nonzero;fill:rgb(89.411765%,89.411765%,89.411765%);fill-opacity:1;" d="M 224.472656 54.019531 L 185.769531 54.019531 C 184.9375 54.019531 184.261719 54.695312 184.261719 55.527344 C 184.261719 56.363281 184.9375 57.039062 185.769531 57.039062 L 224.472656 57.039062 C 226.4375 57.066406 226.417969 53.988281 224.472656 54.019531 Z M 224.472656 54.019531 "/>
<path style=" stroke:none;fill-rule:nonzero;fill:rgb(89.411765%,89.411765%,89.411765%);fill-opacity:1;" d="M 224.472656 60.941406 L 185.769531 60.941406 C 184.9375 60.941406 184.261719 61.617188 184.261719 62.449219 C 184.261719 63.285156 184.9375 63.960938 185.769531 63.960938 L 224.472656 63.960938 C 226.4375 63.988281 226.417969 60.910156 224.472656 60.941406 Z M 224.472656 60.941406 "/>
<path style=" stroke:none;fill-rule:nonzero;fill:rgb(89.411765%,89.411765%,89.411765%);fill-opacity:1;" d="M 224.472656 67.863281 L 185.769531 67.863281 C 184.9375 67.863281 184.261719 68.539062 184.261719 69.371094 C 184.261719 70.207031 184.9375 70.882812 185.769531 70.882812 L 224.472656 70.882812 C 226.4375 70.910156 226.417969 67.832031 224.472656 67.863281 Z M 224.472656 67.863281 "/>
<path style=" stroke:none;fill-rule:nonzero;fill:rgb(61.960784%,38.039216%,41.568627%);fill-opacity:1;" d="M 109.140625 62.519531 C 109.078125 62.699219 109.035156 62.886719 109.003906 63.074219 L 89.429688 59.605469 L 72.566406 50.5 C 70.363281 49.3125 67.621094 50.03125 66.285156 52.144531 C 64.945312 54.261719 65.46875 57.054688 67.484375 58.539062 C 70.628906 60.855469 74.117188 62.667969 77.820312 63.910156 L 90.042969 68.011719 L 111.457031 66.636719 C 113.113281 66.996094 114.757812 65.980469 115.179688 64.335938 C 115.601562 62.691406 114.65625 61.007812 113.03125 60.519531 C 111.410156 60.03125 109.691406 60.914062 109.140625 62.519531 Z M 109.140625 62.519531 "/>
<path style=" stroke:none;fill-rule:nonzero;fill:rgb(87.058824%,29.803922%,29.019608%);fill-opacity:1;" d="M 157.292969 62.582031 L 96.347656 62.582031 C 95.464844 62.582031 94.746094 63.300781 94.746094 64.1875 L 94.746094 88.949219 C 94.746094 89.835938 95.464844 90.554688 96.347656 90.558594 L 157.292969 90.558594 C 158.175781 90.554688 158.890625 89.835938 158.894531 88.949219 L 158.894531 64.1875 C 158.890625 63.300781 158.175781 62.582031 157.292969 62.582031 Z M 157.292969 62.582031 "/>
<path style=" stroke:none;fill-rule:nonzero;fill:rgb(87.058824%,29.803922%,29.019608%);fill-opacity:1;" d="M 151.488281 98.585938 L 102.152344 98.585938 C 101.089844 98.585938 100.230469 99.449219 100.230469 100.511719 C 100.230469 101.574219 101.089844 102.4375 102.152344 102.4375 L 151.488281 102.4375 C 153.992188 102.472656 153.96875 98.550781 151.488281 98.585938 Z M 151.488281 98.585938 "/>
<path style=" stroke:none;fill-rule:nonzero;fill:rgb(87.058824%,29.803922%,29.019608%);fill-opacity:1;" d="M 151.488281 107.410156 L 102.152344 107.410156 C 101.089844 107.410156 100.230469 108.269531 100.230469 109.335938 C 100.230469 110.398438 101.089844 111.261719 102.152344 111.261719 L 151.488281 111.261719 C 153.992188 111.296875 153.96875 107.375 151.488281 107.410156 Z M 151.488281 107.410156 "/>
<path style=" stroke:none;fill-rule:nonzero;fill:rgb(87.058824%,29.803922%,29.019608%);fill-opacity:1;" d="M 151.488281 116.234375 L 102.152344 116.234375 C 101.089844 116.234375 100.230469 117.097656 100.230469 118.160156 C 100.230469 119.222656 101.089844 120.082031 102.152344 120.082031 L 151.488281 120.082031 C 153.992188 120.117188 153.96875 116.199219 151.488281 116.234375 Z M 151.488281 116.234375 "/>
<path style=" stroke:none;fill-rule:nonzero;fill:rgb(61.960784%,38.039216%,41.568627%);fill-opacity:1;" d="M 77.523438 28.949219 C 82.074219 31.441406 83.746094 37.152344 81.257812 41.710938 C 78.773438 46.265625 73.070312 47.9375 68.519531 45.449219 C 63.972656 42.957031 62.300781 37.246094 64.785156 32.691406 C 67.273438 28.136719 72.976562 26.460938 77.523438 28.949219 Z M 77.523438 28.949219 "/>
<path style=" stroke:none;fill-rule:nonzero;fill:rgb(18.431373%,18.039216%,25.490196%);fill-opacity:1;" d="M 74.59375 25.777344 L 68.527344 25.777344 C 64.554688 25.777344 61.332031 29.410156 61.332031 33.886719 C 58.332031 36.90625 59.230469 40.683594 61.613281 44.753906 C 65.90625 45.289062 70.109375 46.414062 74.097656 48.097656 L 74.664062 45.675781 L 75.777344 48.863281 C 76.769531 49.34375 77.753906 49.871094 78.730469 50.445312 C 77.59375 45.082031 77.125 39.734375 77.90625 35.582031 L 79.960938 35.582031 L 79.960938 33.332031 L 80.65625 35.582031 L 84.378906 35.582031 C 84.378906 30.167969 79.996094 25.777344 74.59375 25.777344 Z M 74.59375 25.777344 "/>
<path style=" stroke:none;fill-rule:nonzero;fill:rgb(79.215686%,79.215686%,79.215686%);fill-opacity:1;" d="M 73.960938 49.179688 L 62.609375 48.6875 L 62.304688 49.847656 C 59.792969 59.40625 59.402344 69.398438 61.167969 79.121094 C 61.851562 79.769531 62.136719 80.738281 61.90625 81.652344 L 61.742188 82.304688 L 61.757812 82.328125 C 62.292969 83.171875 62.476562 84.195312 62.265625 85.175781 L 62.832031 88.304688 L 81.222656 80.167969 L 85.328125 65.9375 Z M 73.960938 49.179688 "/>
<path style=" stroke:none;fill-rule:nonzero;fill:rgb(61.960784%,38.039216%,41.568627%);fill-opacity:1;" d="M 102.09375 79.171875 C 101.96875 79.3125 101.851562 79.464844 101.753906 79.625 L 85.175781 68.632812 L 73.332031 53.550781 C 71.785156 51.582031 68.984375 51.148438 66.914062 52.554688 C 64.847656 53.960938 64.214844 56.730469 65.472656 58.894531 C 67.433594 62.277344 69.914062 65.332031 72.816406 67.949219 L 82.394531 76.589844 L 102.582031 83.875 C 103.960938 84.863281 105.871094 84.585938 106.914062 83.25 C 107.953125 81.910156 107.753906 79.984375 106.460938 78.890625 C 105.164062 77.796875 103.238281 77.917969 102.09375 79.171875 Z M 102.09375 79.171875 "/>
<path style=" stroke:none;fill-rule:nonzero;fill:rgb(89.411765%,89.411765%,89.411765%);fill-opacity:1;" d="M 138.144531 47.644531 C 133.132812 47.644531 129.070312 43.574219 129.070312 38.558594 C 129.070312 33.539062 133.132812 29.46875 138.144531 29.46875 C 143.15625 29.46875 147.21875 33.539062 147.21875 38.558594 C 147.21875 43.574219 143.15625 47.644531 138.144531 47.644531 Z M 138.144531 47.644531 "/>
<path style=" stroke:none;fill-rule:nonzero;fill:rgb(100%,100%,100%);fill-opacity:1;" d="M 141.722656 37.660156 L 139.039062 37.660156 L 139.039062 34.972656 C 139.039062 34.476562 138.636719 34.074219 138.144531 34.074219 C 137.648438 34.074219 137.25 34.476562 137.25 34.972656 L 137.25 37.660156 L 134.5625 37.660156 C 134.070312 37.660156 133.671875 38.0625 133.671875 38.558594 C 133.671875 39.050781 134.070312 39.453125 134.5625 39.453125 L 137.25 39.453125 L 137.25 42.144531 C 137.25 42.636719 137.648438 43.039062 138.144531 43.039062 C 138.636719 43.039062 139.039062 42.636719 139.039062 42.144531 L 139.039062 39.453125 L 141.722656 39.453125 C 142.042969 39.453125 142.339844 39.285156 142.5 39.007812 C 142.660156 38.726562 142.660156 38.386719 142.5 38.109375 C 142.339844 37.832031 142.042969 37.660156 141.722656 37.660156 Z M 141.722656 37.660156 "/>
<path style=" stroke:none;fill-rule:nonzero;fill:rgb(18.431373%,18.039216%,25.490196%);fill-opacity:1;" d="M 92.902344 149.085938 C 93.5 147.507812 93.316406 145.738281 92.40625 144.316406 L 84.378906 102.621094 L 81.222656 86.808594 L 62.277344 86.808594 C 62.277344 86.808594 50.4375 99.933594 52.964844 116.695312 L 52.257812 140.296875 C 51.585938 141.914062 51.421875 143.699219 51.78125 145.414062 L 52.0625 146.75 L 51.957031 146.949219 C 50.90625 148.894531 50.875 151.230469 51.871094 153.203125 L 51.070312 179.9375 L 56.753906 179.621094 L 65.121094 148.472656 L 70.644531 120.488281 L 79.960938 142.148438 L 80.273438 147.210938 L 80.121094 151.667969 L 72.855469 177.726562 L 79.011719 180.097656 Z M 92.902344 149.085938 "/>
<path style=" stroke:none;fill-rule:nonzero;fill:rgb(79.215686%,79.215686%,79.215686%);fill-opacity:1;" d="M 138.820312 190.527344 C 138.820312 190.734375 138.652344 190.902344 138.445312 190.902344 L 0.375 190.902344 C 0.167969 190.902344 0 190.734375 0 190.527344 C 0 190.316406 0.167969 190.148438 0.375 190.148438 L 138.445312 190.148438 C 138.546875 190.148438 138.640625 190.1875 138.710938 190.257812 C 138.78125 190.328125 138.820312 190.425781 138.820312 190.527344 Z M 138.820312 190.527344 "/>
</g>
</svg>
