<?xml version="1.0" encoding="UTF-8"?>
<svg xmlns="http://www.w3.org/2000/svg" xmlns:xlink="http://www.w3.org/1999/xlink" width="300px" height="272px" viewBox="0 0 300 272" version="1.1">
<g id="surface1">
<path style=" stroke:none;fill-rule:nonzero;fill:rgb(94.901961%,94.901961%,94.901961%);fill-opacity:1;" d="M 109.683594 209.003906 L 13.171875 209.003906 C 5.945312 208.992188 0.0859375 203.128906 0.078125 195.886719 L 0.078125 59.886719 C 0.078125 26.863281 26.898438 0 59.863281 0 L 109.683594 0 C 116.910156 0.0078125 122.765625 5.875 122.773438 13.113281 L 122.773438 195.886719 C 122.765625 203.128906 116.910156 208.992188 109.683594 209.003906 Z M 109.683594 209.003906 "/>
<path style=" stroke:none;fill-rule:nonzero;fill:rgb(100%,100%,100%);fill-opacity:1;" d="M 16.546875 118.191406 C 13.503906 118.195312 11.035156 120.667969 11.03125 123.714844 L 11.03125 154.757812 C 11.035156 157.808594 13.503906 160.28125 16.546875 160.28125 L 110.335938 160.28125 C 113.382812 160.28125 115.847656 157.808594 115.851562 154.757812 L 115.851562 123.714844 C 115.847656 120.667969 113.382812 118.195312 110.335938 118.191406 Z M 16.546875 118.191406 "/>
<path style=" stroke:none;fill-rule:nonzero;fill:rgb(100%,100%,100%);fill-opacity:1;" d="M 110.5625 98.054688 L 16.773438 98.054688 C 13.480469 98.050781 10.808594 95.375 10.804688 92.078125 C 10.828125 71.640625 27.363281 55.082031 47.761719 55.058594 L 110.5625 55.058594 C 113.855469 55.0625 116.527344 57.734375 116.527344 61.035156 L 116.527344 92.078125 C 116.523438 95.375 113.855469 98.050781 110.5625 98.054688 Z M 110.5625 98.054688 "/>
<path style=" stroke:none;fill-rule:nonzero;fill:rgb(100%,100%,100%);fill-opacity:1;" d="M 150.945312 155.519531 L 42.976562 155.519531 C 41.652344 155.519531 40.582031 154.445312 40.582031 153.121094 L 40.582031 124.625 C 40.582031 123.300781 41.652344 122.230469 42.976562 122.226562 L 150.945312 122.226562 C 152.265625 122.230469 153.335938 123.300781 153.335938 124.625 L 153.335938 153.121094 C 153.335938 154.445312 152.265625 155.519531 150.945312 155.519531 Z M 150.945312 155.519531 "/>
<path style=" stroke:none;fill-rule:nonzero;fill:rgb(80%,80%,80%);fill-opacity:1;" d="M 150.945312 155.972656 L 42.976562 155.972656 C 41.40625 155.972656 40.132812 154.695312 40.128906 153.121094 L 40.128906 124.625 C 40.132812 123.050781 41.40625 121.777344 42.976562 121.777344 L 150.945312 121.777344 C 152.515625 121.777344 153.789062 123.050781 153.789062 124.625 L 153.789062 153.121094 C 153.789062 154.695312 152.515625 155.972656 150.945312 155.972656 Z M 42.976562 122.679688 C 41.902344 122.683594 41.035156 123.550781 41.035156 124.625 L 41.035156 153.121094 C 41.035156 154.195312 41.902344 155.066406 42.976562 155.066406 L 150.945312 155.066406 C 152.015625 155.066406 152.882812 154.195312 152.886719 153.121094 L 152.886719 124.625 C 152.882812 123.550781 152.015625 122.683594 150.945312 122.679688 Z M 42.976562 122.679688 "/>
<path style=" stroke:none;fill-rule:nonzero;fill:rgb(87.058824%,29.803922%,29.019608%);fill-opacity:1;" d="M 56.039062 131.84375 C 56.039062 133.992188 54.300781 135.734375 52.15625 135.734375 C 50.011719 135.734375 48.273438 133.992188 48.273438 131.84375 C 48.273438 129.695312 50.011719 127.953125 52.15625 127.953125 C 54.300781 127.953125 56.039062 129.695312 56.039062 131.84375 Z M 56.039062 131.84375 "/>
<path style=" stroke:none;fill-rule:nonzero;fill:rgb(87.058824%,29.803922%,29.019608%);fill-opacity:1;" d="M 144.488281 141.648438 L 49.429688 141.648438 C 48.789062 141.648438 48.273438 141.128906 48.273438 140.492188 C 48.273438 139.851562 48.789062 139.332031 49.429688 139.332031 L 144.488281 139.332031 C 145.128906 139.332031 145.648438 139.851562 145.648438 140.492188 C 145.648438 141.128906 145.128906 141.648438 144.488281 141.648438 Z M 144.488281 141.648438 "/>
<path style=" stroke:none;fill-rule:nonzero;fill:rgb(87.058824%,29.803922%,29.019608%);fill-opacity:1;" d="M 135.042969 146.226562 L 49.429688 146.226562 C 49.015625 146.226562 48.632812 146.007812 48.425781 145.648438 C 48.21875 145.289062 48.21875 144.847656 48.425781 144.488281 C 48.632812 144.128906 49.015625 143.910156 49.429688 143.910156 L 135.042969 143.910156 C 135.683594 143.910156 136.203125 144.429688 136.203125 145.070312 C 136.203125 145.707031 135.683594 146.226562 135.042969 146.226562 Z M 135.042969 146.226562 "/>
<path style=" stroke:none;fill-rule:nonzero;fill:rgb(100%,100%,100%);fill-opacity:1;" d="M 270.085938 221.527344 L 183.285156 157.210938 C 182.222656 156.421875 182 154.921875 182.785156 153.855469 L 199.703125 130.945312 C 200.488281 129.882812 201.984375 129.660156 203.050781 130.445312 L 289.851562 194.761719 C 290.914062 195.550781 291.136719 197.050781 290.351562 198.113281 L 273.433594 221.023438 C 272.648438 222.089844 271.148438 222.3125 270.085938 221.527344 Z M 270.085938 221.527344 "/>
<path style=" stroke:none;fill-rule:nonzero;fill:rgb(80%,80%,80%);fill-opacity:1;" d="M 269.816406 221.890625 L 183.015625 157.574219 C 181.753906 156.636719 181.488281 154.855469 182.421875 153.585938 L 199.339844 130.675781 C 200.273438 129.414062 202.054688 129.148438 203.316406 130.082031 L 290.121094 194.398438 C 291.382812 195.335938 291.648438 197.117188 290.714844 198.382812 L 273.796875 221.292969 C 272.863281 222.558594 271.082031 222.824219 269.816406 221.890625 Z M 202.78125 130.808594 C 201.917969 130.171875 200.703125 130.351562 200.066406 131.214844 L 183.148438 154.125 C 182.511719 154.988281 182.691406 156.207031 183.554688 156.847656 L 270.355469 221.164062 C 271.21875 221.800781 272.433594 221.617188 273.070312 220.757812 L 289.988281 197.847656 C 290.625 196.980469 290.445312 195.765625 289.582031 195.125 Z M 202.78125 130.808594 "/>
<path style=" stroke:none;fill-rule:nonzero;fill:rgb(87.058824%,29.803922%,29.019608%);fill-opacity:1;" d="M 208.605469 143.644531 C 208.605469 145.792969 206.867188 147.535156 204.722656 147.535156 C 202.578125 147.535156 200.835938 145.792969 200.835938 143.644531 C 200.835938 141.496094 202.578125 139.753906 204.722656 139.753906 C 206.867188 139.753906 208.605469 141.496094 208.605469 143.644531 Z M 208.605469 143.644531 "/>
<path style=" stroke:none;fill-rule:nonzero;fill:rgb(87.058824%,29.803922%,29.019608%);fill-opacity:1;" d="M 273.132812 206.53125 L 196.707031 149.902344 C 196.195312 149.523438 196.085938 148.796875 196.464844 148.28125 C 196.84375 147.769531 197.570312 147.660156 198.082031 148.039062 L 274.507812 204.667969 C 275.023438 205.046875 275.128906 205.773438 274.75 206.289062 C 274.371094 206.800781 273.648438 206.910156 273.132812 206.53125 Z M 273.132812 206.53125 "/>
<path style=" stroke:none;fill-rule:nonzero;fill:rgb(87.058824%,29.803922%,29.019608%);fill-opacity:1;" d="M 262.820312 204.585938 L 193.988281 153.582031 C 193.476562 153.203125 193.367188 152.476562 193.746094 151.960938 C 194.128906 151.449219 194.851562 151.339844 195.367188 151.71875 L 264.195312 202.722656 C 264.710938 203.101562 264.820312 203.828125 264.4375 204.34375 C 264.058594 204.855469 263.335938 204.964844 262.820312 204.585938 Z M 262.820312 204.585938 "/>
<path style=" stroke:none;fill-rule:nonzero;fill:rgb(100%,71.372549%,71.372549%);fill-opacity:1;" d="M 229.554688 153.816406 C 228.589844 153.039062 228.011719 151.875 227.976562 150.636719 C 227.9375 149.394531 228.449219 148.203125 229.367188 147.371094 L 222.527344 127.410156 L 227.570312 124.160156 L 235.527344 147.921875 C 236.835938 149.617188 236.675781 152.023438 235.152344 153.527344 C 233.628906 155.03125 231.222656 155.152344 229.554688 153.816406 Z M 229.554688 153.816406 "/>
<path style=" stroke:none;fill-rule:nonzero;fill:rgb(90.196078%,90.196078%,90.196078%);fill-opacity:1;" d="M 223.714844 98.746094 C 224.921875 103.867188 226.726562 108.34375 226.484375 110.492188 C 226.242188 112.632812 228.855469 114.691406 228.023438 116.386719 C 227.195312 118.082031 229.746094 118.265625 229.058594 120.996094 C 228.363281 123.734375 227.914062 124.320312 228.5 124.773438 C 229.085938 125.222656 232.199219 135.671875 232.199219 135.671875 L 230.375 136.339844 L 225.050781 138.289062 L 212.539062 117.671875 L 212.574219 92.371094 L 215.683594 92.273438 C 216.429688 92.550781 217.253906 92.886719 218.078125 93.292969 C 220.59375 94.511719 223.140625 96.308594 223.714844 98.746094 Z M 223.714844 98.746094 "/>
<path style=" stroke:none;fill-rule:nonzero;fill:rgb(100%,71.372549%,71.372549%);fill-opacity:1;" d="M 177.644531 259.292969 L 171.136719 259.292969 L 168.042969 234.15625 L 177.644531 234.15625 Z M 177.644531 259.292969 "/>
<path style=" stroke:none;fill-rule:nonzero;fill:rgb(18.431373%,18.039216%,25.490196%);fill-opacity:1;" d="M 158.003906 268.910156 C 158.011719 270.429688 159.238281 271.660156 160.753906 271.667969 L 173.003906 271.667969 L 173.382812 270.882812 L 175.113281 267.300781 L 175.785156 270.882812 L 175.933594 271.667969 L 180.554688 271.667969 L 180.488281 270.875 L 179.257812 256.078125 L 177.644531 255.980469 L 170.683594 255.566406 L 168.972656 255.460938 L 168.972656 259.878906 C 167.671875 261.261719 157.488281 266.492188 158.003906 268.910156 Z M 158.003906 268.910156 "/>
<path style=" stroke:none;fill-rule:nonzero;fill:rgb(100%,71.372549%,71.372549%);fill-opacity:1;" d="M 253.867188 252.199219 L 248.207031 255.414062 L 233.128906 235.082031 L 241.480469 230.335938 Z M 253.867188 252.199219 "/>
<path style=" stroke:none;fill-rule:nonzero;fill:rgb(18.431373%,18.039216%,25.490196%);fill-opacity:1;" d="M 241.523438 270.269531 C 242.273438 271.59375 243.949219 272.058594 245.273438 271.3125 L 245.917969 270.949219 L 245.921875 270.949219 L 255.925781 265.257812 L 255.609375 260.414062 L 258.480469 263.808594 L 260.597656 262.601562 L 262.492188 261.523438 L 260.816406 259.066406 L 253.683594 248.601562 L 252.230469 249.320312 L 245.96875 252.398438 L 244.4375 253.152344 L 246.609375 256.992188 C 246.164062 258.84375 239.882812 268.417969 241.523438 270.269531 Z M 241.523438 270.269531 "/>
<path style=" stroke:none;fill-rule:nonzero;fill:rgb(18.431373%,18.039216%,25.490196%);fill-opacity:1;" d="M 209.929688 135.894531 C 218.648438 141.683594 227.28125 197.285156 225.015625 196.375 L 245.5625 234.738281 L 216.316406 247.871094 L 197.082031 180.980469 L 193.878906 205.597656 L 198.152344 244.664062 L 179.246094 249.242188 L 166.167969 248.304688 C 169.566406 201.742188 178.050781 152.628906 185.082031 133.632812 Z M 209.929688 135.894531 "/>
<path style=" stroke:none;fill-rule:nonzero;fill:rgb(90.196078%,90.196078%,90.196078%);fill-opacity:1;" d="M 216.550781 140.027344 L 216.644531 140.382812 C 207.429688 145.519531 200.476562 148.910156 190.398438 145.800781 L 183.703125 139.761719 L 180.582031 127.703125 L 180.777344 97.289062 C 180.789062 94.925781 181.78125 92.679688 183.515625 91.078125 C 185.246094 89.476562 187.566406 88.667969 189.917969 88.84375 L 196.539062 83.929688 L 205.96875 84.253906 L 212.277344 91.234375 L 216.042969 92.582031 L 218.972656 93.628906 C 219.5625 94.160156 220.210938 94.777344 220.828125 95.457031 L 216.199219 123.0625 L 214.226562 131.316406 Z M 216.550781 140.027344 "/>
<path style=" stroke:none;fill-rule:nonzero;fill:rgb(100%,71.372549%,71.372549%);fill-opacity:1;" d="M 211.847656 64.875 C 215.066406 70.738281 212.929688 78.109375 207.074219 81.332031 C 201.21875 84.558594 193.863281 82.417969 190.644531 76.554688 C 187.425781 70.6875 189.558594 63.320312 195.414062 60.09375 C 201.269531 56.871094 208.625 59.007812 211.847656 64.875 Z M 211.847656 64.875 "/>
<path style=" stroke:none;fill-rule:nonzero;fill:rgb(18.431373%,18.039216%,25.490196%);fill-opacity:1;" d="M 217.152344 66.492188 C 217.117188 66.507812 217.085938 66.519531 217.050781 66.535156 C 216.980469 66.5625 216.910156 66.589844 216.835938 66.609375 C 216.375 66.78125 215.894531 66.890625 215.40625 66.941406 C 215.195312 66.964844 214.988281 66.972656 214.777344 66.972656 C 214.507812 66.976562 214.238281 66.957031 213.972656 66.921875 C 213.675781 66.886719 213.382812 66.824219 213.097656 66.742188 C 212.960938 66.707031 212.824219 66.664062 212.695312 66.613281 C 210.871094 65.964844 209.460938 64.5 208.878906 62.652344 L 208.878906 62.648438 C 208.847656 62.558594 208.824219 62.46875 208.800781 62.378906 C 208.667969 61.867188 208.601562 61.34375 208.597656 60.816406 L 208.597656 60.808594 C 208.597656 59.523438 208.996094 58.269531 209.742188 57.222656 C 210.191406 56.585938 210.710938 56.476562 210.421875 55.746094 C 209.492188 53.414062 213.296875 51.507812 215.546875 52.535156 C 215.625 52.527344 215.707031 52.523438 215.789062 52.523438 C 217.304688 52.519531 217.863281 54.761719 218.765625 56.019531 L 218.742188 56.027344 C 218.273438 56.191406 217.960938 56.636719 217.960938 57.132812 C 217.964844 57.632812 218.285156 58.070312 218.753906 58.230469 C 219.355469 58.425781 219.964844 58.597656 220.574219 58.75 C 222.597656 61.140625 220.28125 68.140625 217.152344 66.492188 Z M 217.152344 66.492188 "/>
<path style=" stroke:none;fill-rule:nonzero;fill:rgb(18.431373%,18.039216%,25.490196%);fill-opacity:1;" d="M 216.039062 72.910156 C 215.371094 75.457031 214.140625 77.945312 212.097656 79.601562 C 210.050781 81.261719 200.425781 85.1875 199.613281 81.824219 C 200.15625 84.171875 199.828125 85.070312 198.953125 85.910156 C 198.804688 85.707031 198.644531 85.511719 198.480469 85.320312 C 197.882812 84.628906 197.160156 84.050781 196.355469 83.613281 C 196.332031 85.03125 196.433594 86.445312 196.660156 87.847656 C 196.296875 88.179688 195.957031 88.53125 195.632812 88.898438 C 194.074219 84.25 190.660156 78.683594 193.132812 74.449219 C 194.113281 72.769531 193.296875 72.539062 192.425781 72.347656 C 190.910156 72.011719 190.074219 65.777344 189.714844 64.261719 C 189.265625 62.363281 189.089844 60.175781 190.265625 58.617188 C 191.4375 57.058594 194.410156 56.992188 195.011719 58.851562 L 196.265625 57.144531 C 197.882812 53.578125 202.175781 54.292969 206.058594 54.753906 C 209.941406 55.210938 213.367188 57.945312 215.117188 61.445312 C 216.859375 64.949219 217.027344 69.117188 216.039062 72.910156 Z M 216.039062 72.910156 "/>
<path style=" stroke:none;fill-rule:nonzero;fill:rgb(87.058824%,29.803922%,29.019608%);fill-opacity:1;" d="M 209.917969 56.621094 C 209.75 61.015625 212.21875 65.085938 216.1875 66.964844 C 216.976562 67.324219 217.664062 66.152344 216.871094 65.792969 C 213.320312 64.152344 211.109375 60.527344 211.273438 56.617188 C 211.320312 55.742188 209.964844 55.75 209.917969 56.621094 Z M 209.917969 56.621094 "/>
<path style=" stroke:none;fill-rule:nonzero;fill:rgb(100%,71.372549%,71.372549%);fill-opacity:1;" d="M 153.921875 141.140625 C 155.113281 140.808594 156.101562 139.96875 156.625 138.84375 C 157.144531 137.714844 157.148438 136.417969 156.628906 135.289062 L 170.78125 119.65625 L 167.425781 114.671875 L 150.753906 133.363281 C 148.882812 134.402344 148.082031 136.675781 148.890625 138.660156 C 149.699219 140.644531 151.859375 141.710938 153.921875 141.140625 Z M 153.921875 141.140625 "/>
<path style=" stroke:none;fill-rule:nonzero;fill:rgb(90.196078%,90.196078%,90.196078%);fill-opacity:1;" d="M 194.144531 90.421875 C 194.144531 90.421875 184.109375 88.617188 180.980469 92.847656 C 177.851562 97.078125 174.433594 100.476562 173.8125 102.542969 C 173.1875 104.613281 169.976562 105.464844 170.074219 107.351562 C 170.167969 109.238281 167.75 108.398438 167.308594 111.183594 C 166.867188 113.96875 167.046875 114.6875 166.332031 114.871094 C 165.613281 115.050781 158.640625 123.421875 158.640625 123.421875 L 164.179688 128.652344 L 183.792969 114.65625 Z M 194.144531 90.421875 "/>
<path style=" stroke:none;fill-rule:nonzero;fill:rgb(87.058824%,29.803922%,29.019608%);fill-opacity:1;" d="M 114.042969 16.644531 C 114.042969 22.300781 109.464844 26.886719 103.820312 26.886719 C 98.171875 26.886719 93.59375 22.300781 93.59375 16.644531 C 93.59375 10.988281 98.171875 6.402344 103.820312 6.402344 C 109.464844 6.402344 114.042969 10.988281 114.042969 16.644531 Z M 114.042969 16.644531 "/>
<path style=" stroke:none;fill-rule:nonzero;fill:rgb(100%,100%,100%);fill-opacity:1;" d="M 103.820312 22.152344 C 103.578125 22.152344 103.382812 21.957031 103.382812 21.71875 L 103.382812 11.632812 C 103.382812 11.390625 103.578125 11.195312 103.820312 11.195312 C 104.058594 11.195312 104.253906 11.390625 104.253906 11.632812 L 104.253906 21.71875 C 104.253906 21.957031 104.058594 22.152344 103.820312 22.152344 Z M 103.820312 22.152344 "/>
<path style=" stroke:none;fill-rule:nonzero;fill:rgb(100%,100%,100%);fill-opacity:1;" d="M 108.855469 17.109375 L 98.785156 17.109375 C 98.546875 17.109375 98.351562 16.914062 98.351562 16.675781 C 98.351562 16.433594 98.546875 16.238281 98.785156 16.238281 L 108.855469 16.238281 C 109.09375 16.238281 109.289062 16.433594 109.289062 16.675781 C 109.289062 16.914062 109.09375 17.109375 108.855469 17.109375 Z M 108.855469 17.109375 "/>
<path style=" stroke:none;fill-rule:nonzero;fill:rgb(94.901961%,94.901961%,94.901961%);fill-opacity:1;" d="M 262.769531 271.570312 L 262.710938 271.246094 C 260.722656 260.269531 263.65625 248.972656 270.730469 240.355469 C 272.710938 237.984375 274.980469 235.871094 277.488281 234.066406 L 277.726562 233.894531 L 277.832031 234.167969 C 279.078125 237.460938 280.652344 240.761719 281.371094 242.21875 L 281.855469 231.324219 L 282.128906 231.175781 C 284.71875 229.785156 287.890625 230.113281 290.140625 232.003906 C 292.472656 233.878906 293.425781 236.984375 292.554688 239.847656 C 292.179688 241.125 291.824219 242.453125 291.480469 243.738281 C 290.300781 248.152344 289.082031 252.714844 286.714844 256.558594 C 283.03125 262.414062 276.90625 266.292969 270.042969 267.109375 Z M 262.769531 271.570312 "/>
<path style=" stroke:none;fill-rule:nonzero;fill:rgb(80%,80%,80%);fill-opacity:1;" d="M 299.851562 271.492188 C 299.851562 271.632812 299.792969 271.769531 299.695312 271.871094 C 299.59375 271.972656 299.457031 272.03125 299.3125 272.027344 L 0.539062 272.027344 C 0.242188 272.027344 0 271.789062 0 271.492188 C 0 271.191406 0.242188 270.953125 0.539062 270.953125 L 299.3125 270.953125 C 299.457031 270.953125 299.59375 271.007812 299.695312 271.109375 C 299.792969 271.210938 299.851562 271.347656 299.851562 271.492188 Z M 299.851562 271.492188 "/>
</g>
</svg>
